<svg xmlns="http://www.w3.org/2000/svg" version="1.1" xmlns:xlink="http://www.w3.org/1999/xlink" xmlns:svgjs="http://svgjs.dev/svgjs" width="100%" height="100%" viewBox="0 0 1000 600"><rect width="1000" height="600" x="0" y="0" fill="#262223"/><g><rect width="333.3333333333333" height="333.3333333333333" rx="13.333333333333334" ry="13.333333333333334" y="237.81371491980798" fill="#ddc6b6" transform="matrix(0.579800191643592,0,0,0.579800191643592,0,65.48217868031013)" x="215.5914611816406"/><path d="M427.5430429980131 457.52142887240643L431.6873252047934 470.99034604444233Q425.47090189462295 475.76778247725855 415.91602902899064 477.6384654178191Q406.38993590090536 479.48036862083256 395.6263140582954 479.48036862083256L395.6263140582954 479.48036862083256Q382.56031321191864 479.48036862083256 371.16353714327283 475.0482890385814Q359.766761074627 470.5874297187832 351.27673849823685 461.4642529163571Q342.7867159218467 452.341076113931 337.8078213262009 438.152665503218Q332.8289267305551 423.96425489250487 332.8289267305551 404.480372573128L332.8289267305551 404.480372573128Q332.8289267305551 384.1618778648858 338.3258566020484 369.9734672541727Q343.8227864735417 355.7850566434596 352.8308443257795 346.77699879122184Q361.8389021780172 337.76894093898414 373.03422008383336 333.62465873220384Q384.2295379896496 329.48037652542354 395.82777222112503 329.48037652542354L395.82777222112503 329.48037652542354Q408.2606188414659 329.48037652542354 416.1462669293673 330.8042444525895Q424.0031352797216 332.1568921173025 429.61518410140326 334.4304913835222L429.61518410140326 334.4304913835222L425.47090189462295 349.56863333328914Q415.51311270333144 344.791196900473 397.0653009356497 344.791196900473L397.0653009356497 344.791196900473Q388.57527835925947 344.791196900473 380.2867139456989 347.8994085555582Q371.9981495321383 351.00762021064344 365.46514910894996 358.0586559096793Q358.93214868576155 365.10969160871525 355.01810437935796 376.50646767736106Q351.07528033540723 387.90324374600686 351.07528033540723 404.480372573128L351.07528033540723 404.480372573128Q351.07528033540723 419.3882766225183 354.78786647898124 430.5835945283345Q358.52923236010236 441.7789124341507 365.06223278329077 449.2328644588458Q371.5952332064791 456.68681648354095 380.40183289588725 460.42818236466206Q389.2084325852954 464.1695482457831 399.5691381022461 464.1695482457831L399.5691381022461 464.1695482457831Q408.8937730675018 464.1695482457831 415.82968981634934 462.2988653052226Q422.76560656519695 460.42818236466206 427.5430429980131 457.52142887240643L427.5430429980131 457.52142887240643Z " fill="#262223" transform="matrix(0.579800191643592,0,0,0.579800191643592,0,65.48217868031013)"/><path d="M704.5074349787706 457.15302023839456L710.0087999273031 469.9992926448081Q703.6880827523934 474.65204278744994 695.0263592164061 477.0808368870681Q686.3938982599323 479.48036840717265 676.9128224975678 479.48036840717265L676.9128224975678 479.48036840717265Q664.7103268404505 479.48036840717265 656.282703940571 475.588445331881Q647.8550810406915 471.69652225658945 642.4707664102128 464.4394025372487Q637.0864517797343 457.15302023839456 634.6869202596297 446.9403799881933Q632.2581261600116 436.72773973799207 632.2581261600116 424.29114344476704L632.2581261600116 424.29114344476704Q632.2581261600116 397.5451457694549 644.0509457039403 383.3235321259082Q655.8437652478689 369.10191848236144 677.9662753600527 369.10191848236144L677.9662753600527 369.10191848236144Q688.0911278717135 369.10191848236144 695.1434095344599 370.6820977760889Q702.1956911972064 372.26227706981626 707.9018942023332 375.1885350211633L707.9018942023332 375.1885350211633L703.044306003097 389.7320370393582Q698.1867178038609 387.0106171446055 692.3049393216533 385.43043785087804Q686.3938982599323 383.85025855715065 679.663504971834 383.85025855715065L679.663504971834 383.85025855715065Q649.7278861295536 383.85025855715065 649.7278861295536 424.29114344476704L649.7278861295536 424.29114344476704Q649.7278861295536 432.309090231458 651.3080654232809 439.5662099507987Q652.8882447170084 446.8233296701394 656.5753297357056 452.4124823572123Q660.262414754403 458.00163504428514 666.2905061341779 461.36683168833434Q672.2893349344394 464.73202833238344 681.1266339475075 464.73202833238344L681.1266339475075 464.73202833238344Q688.7056420414964 464.73202833238344 694.7337334212714 462.42028455081925Q700.7325622215329 460.10854076925506 704.5074349787706 457.15302023839456L704.5074349787706 457.15302023839456ZM736.7547976026151 392.0437808209224L731.4875332901904 379.4023464711031Q739.5054800768814 374.57402085138045 750.1277964402714 372.26227706981626Q760.7793753831745 369.92127070873863 772.367356870509 369.92127070873863L772.367356870509 369.92127070873863Q783.311561608547 369.92127070873863 789.9541671581048 372.8767912395992Q796.5967727076627 375.8323117704597 800.0790196697656 380.57284965164195Q803.5320040523552 385.31338753282415 804.702507232894 390.9903279584375Q805.8730104134329 396.69653096356427 805.8730104134329 402.37347138917755L805.8730104134329 402.37347138917755Q805.8730104134329 415.01490573899684 805.2292336641365 427.0418259190333Q804.58545691484 439.0394835195562 804.58545691484 449.77885020099995L804.58545691484 449.77885020099995Q804.58545691484 457.5919589310966 805.2292336641365 464.5271902757891Q805.8730104134329 471.4916841999952 807.5409774457007 477.3734626822027L807.5409774457007 477.3734626822027L795.1043811524755 477.3734626822027L790.6857316459416 462.6251226074135L789.6322787834565 462.6251226074135Q787.7302111150809 465.58064313827407 784.8917409022743 468.41911335108074Q782.0532706894678 471.28684614340085 778.0442972961223 473.48153960691116Q774.0353239027768 475.7054956499349 768.7680595903521 477.16862462560846Q763.5007952779274 478.66101618079546 756.770401989829 478.66101618079546L756.770401989829 478.66101618079546Q750.0400087017308 478.66101618079546 744.2460179580637 476.55411045582554Q738.4520272143966 474.4472047308557 734.2382157644568 470.5260190760506Q730.0244043145169 466.63409600075903 727.5956102148989 461.16199363174Q725.1668161152808 455.689891262721 725.1668161152808 448.725397338515L725.1668161152808 448.725397338515Q725.1668161152808 439.44915963274485 728.9709514520321 433.24549277588903Q732.7458242092698 427.0418259190333 739.5932678154218 423.35474090033597Q746.440711421574 419.66765588163867 756.0388375019922 418.0874765879113Q765.6077010028973 416.50729729418384 777.1956824902315 416.50729729418384L777.1956824902315 416.50729729418384Q780.1512030210922 416.50729729418384 782.9896732338989 416.50729729418384Q785.857406026219 416.50729729418384 788.783663977566 416.91697340737244L788.783663977566 416.91697340737244Q789.4274407268624 410.5962562324628 789.4274407268624 405.5338299766324L789.4274407268624 405.5338299766324Q789.4274407268624 393.945848489298 784.8039531637339 389.32236092616967Q780.1512030210922 384.66961078352784 767.9487073639748 384.66961078352784L767.9487073639748 384.66961078352784Q764.3494100838179 384.66961078352784 760.2526489519321 385.19633721477027Q756.1266252405328 385.72306364601275 751.8250260520526 386.68872876995727Q747.494164284059 387.62513131438834 743.6022412087673 389.00047255152145Q739.7103181334758 390.37581378865457 736.7547976026151 392.0437808209224L736.7547976026151 392.0437808209224ZM761.3938895529575 463.91267610600624L761.3938895529575 463.91267610600624Q767.3049306146786 463.91267610600624 771.9284181778069 462.33249681227886Q776.5811683204488 460.7523175185514 779.9463649644979 458.32352341893335Q783.311561608547 455.89472931931533 785.5355176515707 452.9392087884548Q787.7302111150809 449.9836882575942 788.783663977566 447.26226836284144L788.783663977566 447.26226836284144L788.783663977566 429.76324581378606Q785.857406026219 429.55840775719173 782.7848351773046 429.4413574391379Q779.7415269079036 429.35356970059746 776.7860063770431 429.35356970059746L776.7860063770431 429.35356970059746Q770.260451145539 429.35356970059746 764.0275217091698 430.0851341884342Q757.8238548523141 430.816698676271 753.0833169711318 432.83581666270044Q748.3427790899495 434.8256720696165 745.5043088771429 438.30791903171945Q742.6658386643362 441.7901659938225 742.6658386643362 447.05743030624717L742.6658386643362 447.05743030624717Q742.6658386643362 454.4316003436418 747.9331029767609 459.172138224824Q753.2003672891858 463.91267610600624 761.3938895529575 463.91267610600624ZM856.4387478127101 329.48038582112224L856.4387478127101 451.0371411200792Q856.4387478127101 458.4113111574738 858.9553296508686 461.5716697449286Q861.471911489027 464.73202833238344 866.1246616316689 464.73202833238344L866.1246616316689 464.73202833238344Q868.8460815264216 464.73202833238344 872.0064401138764 464.32235221919484Q875.1667987013313 463.91267610600624 879.1757720946766 462.42028455081925L879.1757720946766 462.42028455081925L881.0778397630522 475.7054956499349Q877.7126431190031 477.3734626822027 871.7138143187417 478.4269155446877Q865.6857229389668 479.48036840717265 861.2670734324327 479.48036840717265L861.2670734324327 479.48036840717265Q851.7859976700681 479.48036840717265 845.6701185517529 474.1253163562075Q839.5835020129509 468.74100172572895 839.5835020129509 455.89472931931533L839.5835020129509 455.89472931931533L839.5835020129509 329.48038582112224L856.4387478127101 329.48038582112224ZM965.558906818442 457.15302023839456L971.031009187461 469.9992926448081Q964.7102920125515 474.65204278744994 956.0778310560775 477.0808368870681Q947.4453700996037 479.48036840717265 937.9642943372392 479.48036840717265L937.9642943372392 479.48036840717265Q925.7325361006085 479.48036840717265 917.3049132007288 475.588445331881Q908.8772903008494 471.69652225658945 903.5222382498844 464.4394025372487Q898.1379236194057 457.15302023839456 895.7091295197877 446.9403799881933Q893.3095979996831 436.72773973799207 893.3095979996831 424.29114344476704L893.3095979996831 424.29114344476704Q893.3095979996831 397.5451457694549 905.1024175436116 383.3235321259082Q916.8952370875404 369.10191848236144 939.0177471997242 369.10191848236144L939.0177471997242 369.10191848236144Q949.142599711385 369.10191848236144 956.1948813741315 370.6820977760889Q963.2471630368777 372.26227706981626 968.9241034624911 375.1885350211633L968.9241034624911 375.1885350211633L964.0957778427685 389.7320370393582Q959.2381896435322 387.0106171446055 953.3564111613248 385.43043785087804Q947.4453700996037 383.85025855715065 940.7149768115055 383.85025855715065L940.7149768115055 383.85025855715065Q910.779357969225 383.85025855715065 910.779357969225 424.29114344476704L910.779357969225 424.29114344476704Q910.779357969225 432.309090231458 912.3595372629525 439.5662099507987Q913.9397165566797 446.8233296701394 917.6268015753772 452.4124823572123Q921.3138865940743 458.00163504428514 927.3127153943358 461.36683168833434Q933.3408067741109 464.73202833238344 942.178105787179 464.73202833238344L942.178105787179 464.73202833238344Q949.7571138811679 464.73202833238344 955.7559426814294 462.42028455081925Q961.7840340612042 460.10854076925506 965.558906818442 457.15302023839456L965.558906818442 457.15302023839456ZM992.5390051298618 371.6185003205199L1009.394250929621 371.6185003205199L1009.394250929621 431.6653134821616Q1009.394250929621 439.8880983254469 1010.330653474052 446.09176518230265Q1011.2963185979966 452.3246946186719 1013.6080623795608 456.4214557505578Q1015.9198061611248 460.51821688244365 1019.9287795544703 462.6251226074135Q1023.9377529478159 464.73202833238344 1030.024369486618 464.73202833238344L1030.024369486618 464.73202833238344Q1035.7305724917446 464.73202833238344 1040.1492219982788 462.9470109820617Q1044.567871504813 461.16199363174 1048.050118466916 458.00163504428514Q1051.5323654290187 454.84127645683037 1054.1659975852313 450.7445153249445Q1056.7996297414434 446.61849161354513 1058.4675967737112 441.99500405041675L1058.4675967737112 441.99500405041675L1058.4675967737112 371.6185003205199L1075.3228425734706 371.6185003205199L1075.3228425734706 447.05743030624717Q1075.3228425734706 454.63643840023605 1075.849569004713 462.7421729254674Q1076.3762954359554 470.84790745069876 1077.6638489345482 476.9637865690142L1077.6638489345482 476.9637865690142L1066.0758674472136 476.9637865690142L1061.8620559972737 460.3133788258494L1060.8086031347889 460.3133788258494Q1055.9510149355528 468.5361636691346 1047.7282300922675 474.00826603815364Q1039.5054452489821 479.48036840717265 1026.864010899163 479.48036840717265L1026.864010899163 479.48036840717265Q1018.4363879992834 479.48036840717265 1012.0278830858333 477.4905130002566Q1005.5901155928698 475.50065759334063 1001.2885164043896 470.4382313375102Q996.957654636396 465.3758050816798 994.7336985933723 456.83113186374635Q992.5390051298618 448.3157212253264 992.5390051298618 435.23534818280507L992.5390051298618 435.23534818280507L992.5390051298618 371.6185003205199ZM1126.532356722044 329.48038582112224L1126.532356722044 451.0371411200792Q1126.532356722044 458.4113111574738 1129.0489385602027 461.5716697449286Q1131.5947829778743 464.73202833238344 1136.2182705410028 464.73202833238344L1136.2182705410028 464.73202833238344Q1138.968953015269 464.73202833238344 1142.1293116027236 464.32235221919484Q1145.2896701901786 463.91267610600624 1149.2986435835242 462.42028455081925L1149.2986435835242 462.42028455081925L1151.1714486723863 475.7054956499349Q1147.806252028337 477.3734626822027 1141.8074232280755 478.4269155446877Q1135.8085944278141 479.48036840717265 1131.38994492128 479.48036840717265L1131.38994492128 479.48036840717265Q1121.9088691589154 479.48036840717265 1115.7929900406002 474.1253163562075Q1109.677110922285 468.74100172572895 1109.677110922285 455.89472931931533L1109.677110922285 455.89472931931533L1109.677110922285 329.48038582112224L1126.532356722044 329.48038582112224ZM1172.8842826713812 392.0437808209224L1167.6170183589566 379.4023464711031Q1175.6349651456476 374.57402085138045 1186.2572815090375 372.26227706981626Q1196.9088604519407 369.92127070873863 1208.4968419392753 369.92127070873863L1208.4968419392753 369.92127070873863Q1219.4410466773134 369.92127070873863 1226.083652226871 372.8767912395992Q1232.7262577764286 375.8323117704597 1236.2085047385317 380.57284965164195Q1239.6614891211216 385.31338753282415 1240.8319923016602 390.9903279584375Q1242.0024954821993 396.69653096356427 1242.0024954821993 402.37347138917755L1242.0024954821993 402.37347138917755Q1242.0024954821993 415.01490573899684 1241.3587187329026 427.0418259190333Q1240.7149419836064 439.0394835195562 1240.7149419836064 449.77885020099995L1240.7149419836064 449.77885020099995Q1240.7149419836064 457.5919589310966 1241.3587187329026 464.5271902757891Q1242.0024954821993 471.4916841999952 1243.670462514467 477.3734626822027L1243.670462514467 477.3734626822027L1231.233866221242 477.3734626822027L1226.8152167147077 462.6251226074135L1225.7617638522229 462.6251226074135Q1223.859696183847 465.58064313827407 1221.0212259710406 468.41911335108074Q1218.1827557582337 471.28684614340085 1214.1737823648887 473.48153960691116Q1210.1648089715432 475.7054956499349 1204.8975446591185 477.16862462560846Q1199.6302803466938 478.66101618079546 1192.8998870585956 478.66101618079546L1192.8998870585956 478.66101618079546Q1186.169493770497 478.66101618079546 1180.3755030268298 476.55411045582554Q1174.5815122831627 474.4472047308557 1170.367700833223 470.5260190760506Q1166.153889383283 466.63409600075903 1163.7250952836653 461.16199363174Q1161.296301184047 455.689891262721 1161.296301184047 448.725397338515L1161.296301184047 448.725397338515Q1161.296301184047 439.44915963274485 1165.1004365207982 433.24549277588903Q1168.8753092780357 427.0418259190333 1175.7227528841881 423.35474090033597Q1182.57019649034 419.66765588163867 1192.1683225707584 418.0874765879113Q1201.7371860716635 416.50729729418384 1213.3251675589977 416.50729729418384L1213.3251675589977 416.50729729418384Q1216.2806880898584 416.50729729418384 1219.1191583026653 416.50729729418384Q1221.986891094985 416.50729729418384 1224.9131490463324 416.91697340737244L1224.9131490463324 416.91697340737244Q1225.5569257956286 410.5962562324628 1225.5569257956286 405.5338299766324L1225.5569257956286 405.5338299766324Q1225.5569257956286 393.945848489298 1220.9334382325 389.32236092616967Q1216.2806880898584 384.66961078352784 1204.0781924327412 384.66961078352784L1204.0781924327412 384.66961078352784Q1200.4788951525843 384.66961078352784 1196.3821340206982 385.19633721477027Q1192.256110309299 385.72306364601275 1187.954511120819 386.68872876995727Q1183.623649352825 387.62513131438834 1179.7317262775337 389.00047255152145Q1175.839803202242 390.37581378865457 1172.8842826713812 392.0437808209224L1172.8842826713812 392.0437808209224ZM1197.5233746217236 463.91267610600624L1197.5233746217236 463.91267610600624Q1203.434415683445 463.91267610600624 1208.057903246573 462.33249681227886Q1212.7106533892147 460.7523175185514 1216.075850033264 458.32352341893335Q1219.4410466773134 455.89472931931533 1221.6650027203368 452.9392087884548Q1223.859696183847 449.9836882575942 1224.9131490463324 447.26226836284144L1224.9131490463324 447.26226836284144L1224.9131490463324 429.76324581378606Q1221.986891094985 429.55840775719173 1218.9143202460705 429.4413574391379Q1215.8710119766697 429.35356970059746 1212.915491445809 429.35356970059746L1212.915491445809 429.35356970059746Q1206.3899362143052 429.35356970059746 1200.1570067779362 430.0851341884342Q1193.95333992108 430.816698676271 1189.2128020398982 432.83581666270044Q1184.472264158716 434.8256720696165 1181.633793945909 438.30791903171945Q1178.7953237331026 441.7901659938225 1178.7953237331026 447.05743030624717L1178.7953237331026 447.05743030624717Q1178.7953237331026 454.4316003436418 1184.0625880455273 459.172138224824Q1189.329852357952 463.91267610600624 1197.5233746217236 463.91267610600624ZM1259.911194144443 386.3668403953091L1259.911194144443 371.6185003205199L1276.3275012515 371.6185003205199L1276.3275012515 350.75428112741537L1293.1827470512594 345.9259555076927L1293.1827470512594 371.6185003205199L1321.8308123949469 371.6185003205199L1321.8308123949469 386.3668403953091L1293.1827470512594 386.3668403953091L1293.1827470512594 444.71642394516954Q1293.1827470512594 455.689891262721 1295.9334295255258 460.22559108730894Q1298.6548494202784 464.73202833238344 1305.2096672312955 464.73202833238344L1305.2096672312955 464.73202833238344Q1310.6817696003145 464.73202833238344 1314.4566423575525 463.5907877313581Q1318.2607776943037 462.42028455081925 1322.8842652574317 460.51821688244365L1322.8842652574317 460.51821688244365L1326.688400594183 473.39375186837077Q1321.01146016857 476.1151717631235 1314.2518043009582 477.8124013749048Q1307.52141101286 479.48036840717265 1299.7083022827633 479.48036840717265L1299.7083022827633 479.48036840717265Q1286.8620298763494 479.48036840717265 1281.5947655639247 472.2232486878319Q1276.3275012515 464.9661289684912 1276.3275012515 447.87678253262436L1276.3275012515 447.87678253262436L1276.3275012515 386.3668403953091L1259.911194144443 386.3668403953091ZM1337.0180911624384 424.29114344476704L1337.0180911624384 424.29114344476704Q1337.0180911624384 397.5451457694549 1348.9279610244207 383.3235321259082Q1360.8085683068898 369.10191848236144 1383.1651790551814 369.10191848236144L1383.1651790551814 369.10191848236144Q1394.95799859911 369.10191848236144 1403.7075098736377 372.99384155765307Q1412.4277585686518 376.88576463294464 1418.1339615737788 384.14288435228536Q1423.8109019993922 391.4292666511395 1426.5615844736585 401.6419069013408Q1429.2830043684112 411.854547151542 1429.2830043684112 424.29114344476704L1429.2830043684112 424.29114344476704Q1429.2830043684112 451.0371411200792 1417.402397085942 465.2587547636259Q1405.4925272239593 479.48036840717265 1383.1651790551814 479.48036840717265L1383.1651790551814 479.48036840717265Q1371.3430969317392 479.48036840717265 1362.622848236725 475.588445331881Q1353.8733369621973 471.69652225658945 1348.1671339570707 464.4394025372487Q1342.4901935314574 457.15302023839456 1339.739511057191 446.9403799881933Q1337.0180911624384 436.72773973799207 1337.0180911624384 424.29114344476704ZM1354.4878511319803 424.29114344476704L1354.4878511319803 424.29114344476704Q1354.4878511319803 432.309090231458 1356.0680304257075 439.68326026885256Q1357.6482097194348 447.05743030624717 1361.0426689429978 452.5295326752662Q1364.4078655870467 458.00163504428514 1369.8799679560657 461.36683168833434Q1375.3520703250847 464.73202833238344 1383.1651790551814 464.73202833238344L1383.1651790551814 464.73202833238344Q1411.8132443988693 464.9661289684912 1411.8132443988693 424.29114344476704L1411.8132443988693 424.29114344476704Q1411.8132443988693 416.0683586014818 1410.2330651051416 408.6941885640872Q1408.6528858114143 401.3200185266926 1405.287689167365 395.8479161576736Q1401.8932299438025 390.37581378865457 1396.421127574784 387.09840488314586Q1390.9490252057649 383.85025855715065 1383.1651790551814 383.85025855715065L1383.1651790551814 383.85025855715065Q1354.4878511319803 383.6161579210429 1354.4878511319803 424.29114344476704ZM1509.1405838606725 371.6185003205199L1505.5705491600293 387.82996937098267Q1499.2498319851193 385.72306364601275 1493.5436289799927 385.72306364601275L1493.5436289799927 385.72306364601275Q1484.50149191033 385.72306364601275 1479.2342275979054 390.6977021633028Q1473.9669632854807 395.6430781010793 1472.7086723664015 403.2220861950682L1472.7086723664015 403.2220861950682L1472.7086723664015 476.9637865690142L1455.8534265666426 476.9637865690142L1455.8534265666426 371.6185003205199L1467.6462461105712 371.6185003205199L1470.8066046980257 384.4647727269335L1471.6552195039167 384.4647727269335Q1475.6349303177485 377.29544074613324 1481.2240830048213 373.4035176708416Q1486.8132356918945 369.51159459555004 1495.445696648368 369.51159459555004L1495.445696648368 369.51159459555004Q1501.5615757666837 369.51159459555004 1509.1405838606725 371.6185003205199L1509.1405838606725 371.6185003205199Z " fill="#ddc6b6" transform="matrix(0.579800191643592,0,0,0.579800191643592,0,65.48217868031013)"/></g></svg>